<?xml version="1.0" standalone="no"?>
<!DOCTYPE svg PUBLIC "-//W3C//DTD SVG 20010904//EN"
 "http://www.w3.org/TR/2001/REC-SVG-20010904/DTD/svg10.dtd">
<svg version="1.0" xmlns="http://www.w3.org/2000/svg"
 width="700.000000pt" height="700.000000pt" viewBox="0 0 700.000000 700.000000"
 preserveAspectRatio="xMidYMid meet">
<metadata>
Created by potrace 1.14, written by Peter Selinger 2001-2017
</metadata>
<g transform="translate(0.000000,700.000000) scale(0.100000,-0.100000)"
fill="#000000" stroke="none">
<path d="M3408 6985 c-2 -1 -32 -5 -68 -9 -369 -36 -753 -219 -1115 -531 -114
-99 -287 -275 -396 -405 -30 -36 -56 -67 -59 -70 -6 -6 -70 -88 -135 -175
-103 -137 -266 -391 -336 -523 -16 -31 -42 -77 -56 -102 -71 -124 -196 -390
-265 -565 -21 -55 -43 -109 -48 -120 -12 -26 -91 -256 -95 -275 -2 -8 -10 -35
-18 -60 -19 -57 -71 -244 -92 -335 -9 -38 -19 -79 -21 -90 -11 -43 -44 -229
-49 -273 -7 -56 -13 -102 -20 -159 -6 -42 -5 -43 22 -43 91 0 151 -117 99
-191 -9 -13 -136 -155 -181 -203 -37 -38 -201 -235 -256 -306 -109 -140 -213
-299 -265 -404 l-49 -99 1 -121 c2 -195 53 -305 167 -360 56 -27 162 -45 236
-40 63 4 152 13 176 18 11 2 40 7 65 11 25 4 110 25 190 47 80 22 156 42 170
44 14 3 41 9 60 14 89 23 371 80 425 86 109 12 187 30 238 56 34 17 37 22 37
61 0 84 -69 182 -171 245 -66 40 -200 85 -299 98 -19 3 -48 7 -65 9 -16 3 -86
7 -155 10 -139 6 -161 15 -193 76 -33 62 0 145 65 166 35 10 148 10 273 -2
121 -10 179 -21 285 -51 239 -69 419 -221 487 -409 27 -76 25 -215 -4 -279
-45 -97 -158 -172 -304 -201 -50 -10 -85 -16 -114 -20 -16 -2 -61 -9 -98 -16
l-68 -11 53 -37 c310 -216 688 -373 1126 -466 60 -13 238 -43 297 -50 28 -3
66 -7 85 -10 49 -6 166 -17 225 -21 77 -6 512 -5 580 1 33 3 89 7 125 10 91 8
149 14 190 20 19 3 53 8 75 11 71 8 337 64 435 91 214 58 453 152 640 250 109
58 300 178 312 197 7 11 -6 14 -122 30 -25 4 -56 9 -70 11 -14 3 -36 7 -49 10
-57 11 -152 48 -195 77 -214 141 -169 473 90 671 167 129 391 191 721 202 83
2 108 0 135 -15 63 -34 85 -107 48 -167 -32 -54 -54 -62 -183 -67 -230 -11
-351 -34 -477 -94 -87 -41 -167 -113 -196 -176 -23 -50 -31 -110 -16 -132 20
-32 92 -52 297 -85 183 -29 402 -77 605 -132 117 -33 191 -50 268 -62 17 -3
47 -8 65 -11 17 -3 82 -6 142 -6 182 -1 274 44 332 162 36 75 52 162 50 275
-2 73 -6 89 -48 175 -99 204 -369 560 -639 843 -69 72 -89 109 -85 153 4 49
31 84 76 102 34 13 38 18 34 41 -2 14 -7 54 -10 89 -4 35 -8 73 -11 85 -2 12
-6 39 -9 62 -10 66 -14 85 -35 185 -12 52 -23 104 -25 115 -35 167 -176 596
-262 795 -8 19 -19 44 -24 55 -231 547 -578 1105 -919 1480 -360 395 -720 647
-1097 766 -50 16 -113 34 -140 39 -26 5 -57 11 -68 14 -55 11 -318 28 -327 21z
m222 -629 c101 -12 236 -46 305 -75 170 -73 285 -146 399 -252 184 -172 330
-432 372 -664 18 -98 22 -168 19 -280 -4 -128 -6 -145 -26 -235 -6 -25 -13
-55 -15 -66 -6 -32 -84 -226 -100 -249 -19 -27 -17 -45 5 -45 34 0 267 -79
293 -100 57 -44 61 -129 9 -181 -42 -42 -87 -46 -174 -16 -77 27 -279 82 -332
91 -16 3 -41 8 -55 11 -61 12 -209 34 -330 50 -118 15 -228 19 -495 20 -304 0
-432 -6 -600 -29 -22 -3 -62 -8 -90 -12 -76 -9 -290 -52 -375 -74 -41 -12 -82
-22 -90 -25 -8 -2 -50 -15 -93 -29 -95 -32 -115 -32 -158 -3 -40 27 -66 89
-55 131 14 55 55 82 192 125 71 23 137 41 147 41 24 0 22 11 -17 88 -84 168
-120 330 -120 542 0 267 63 477 209 698 192 291 547 506 891 538 38 4 70 7 72
9 4 3 165 -3 212 -9z m-2015 -2381 c33 -8 142 -55 241 -104 353 -174 494 -225
772 -278 40 -7 61 -10 127 -18 33 -3 74 -8 90 -11 141 -19 899 -27 1125 -12
471 32 690 93 1130 313 223 111 267 126 405 129 147 4 272 -43 359 -134 123
-129 141 -257 42 -304 -69 -33 -138 -9 -170 58 -43 90 -99 126 -198 129 -87 2
-138 -11 -239 -59 l-95 -46 -23 -136 c-13 -75 -25 -144 -26 -154 -2 -9 -7 -38
-10 -65 -10 -65 -26 -102 -65 -147 -51 -58 -103 -80 -185 -80 -94 0 -117 13
-251 146 l-111 110 -26 -68 c-15 -38 -41 -110 -59 -161 -18 -50 -47 -112 -64
-136 -84 -119 -283 -133 -391 -28 -32 31 -50 51 -206 239 l-111 132 -275 1
c-152 0 -292 2 -311 4 -19 1 -79 5 -133 9 -54 4 -106 9 -116 11 -10 2 -42 6
-72 10 -54 6 -245 38 -329 55 -52 10 -34 23 -214 -156 -66 -67 -139 -131 -160
-142 -115 -62 -264 -21 -329 91 -22 37 -31 75 -61 257 -3 14 -12 70 -22 125
-9 55 -16 108 -16 118 2 54 -187 92 -291 58 -40 -14 -75 -49 -114 -116 -21
-36 -39 -53 -66 -64 -100 -38 -197 52 -162 151 53 156 195 266 375 290 50 7
176 -2 235 -17z"/>
<path d="M3400 6109 c-342 -30 -647 -237 -804 -545 -38 -76 -80 -194 -91 -259
-11 -69 -14 -277 -4 -340 20 -127 77 -277 141 -372 22 -33 33 -41 51 -37 47 9
146 24 198 30 30 3 68 7 84 9 157 20 656 27 884 12 69 -4 127 -10 130 -11 3
-2 41 -7 83 -10 42 -4 85 -8 95 -10 10 -2 36 -6 58 -10 22 -4 48 -9 57 -12 35
-10 125 163 168 321 15 56 23 118 25 205 4 145 -8 240 -46 353 -146 435 -573
715 -1029 676z m180 -255 c19 -4 41 -8 49 -10 8 -1 42 -17 77 -34 124 -61 218
-174 256 -308 18 -65 24 -161 14 -212 -3 -14 -9 -38 -12 -55 -20 -92 -109
-216 -195 -274 -162 -108 -345 -119 -519 -31 -99 50 -198 165 -237 275 -20 58
-25 265 -7 306 48 107 75 151 131 207 71 72 177 128 264 138 30 3 55 7 57 9 4
4 83 -3 122 -11z"/>
<path d="M3410 5603 c-176 -60 -230 -283 -99 -411 156 -153 420 -44 420 172 0
169 -165 291 -321 239z"/>
<path d="M1927 3437 c12 -73 23 -133 23 -134 0 -2 38 36 85 84 47 47 84 87 83
88 -2 2 -37 17 -78 35 -41 17 -89 38 -105 45 l-31 14 23 -132z"/>
<path d="M4848 3476 c-42 -17 -79 -34 -82 -37 -3 -3 25 -36 63 -72 l69 -67 15
102 c9 56 15 103 14 103 -1 1 -37 -12 -79 -29z"/>
<path d="M4207 3324 c-3 -3 -180 -17 -200 -16 -21 1 -22 2 58 -93 100 -119
108 -127 120 -113 10 11 85 209 85 224 0 4 -59 2 -63 -2z"/>
<path d="M1008 6593 c-15 -19 -16 -30 -4 -203 8 -116 37 -316 62 -425 8 -38
19 -88 24 -110 11 -50 41 -150 71 -237 l23 -67 60 95 c74 117 258 377 327 461
l50 62 -96 56 c-137 81 -245 165 -362 282 -57 57 -111 103 -121 103 -11 0 -26
-8 -34 -17z"/>
<path d="M5825 6527 c-44 -45 -96 -96 -115 -112 -90 -78 -247 -186 -322 -221
-21 -10 -38 -20 -38 -23 0 -3 13 -19 28 -36 49 -54 182 -236 289 -400 58 -88
109 -164 113 -168 19 -21 125 369 154 563 3 19 7 44 10 55 3 19 15 133 22 215
19 239 -8 264 -141 127z"/>
<path d="M2365 618 l0 -151 105 -30 c159 -44 143 -57 144 121 1 85 -2 156 -5
158 -3 2 -19 6 -35 8 -16 3 -40 8 -54 11 -14 3 -36 8 -50 11 -14 3 -41 9 -60
14 -19 6 -37 10 -40 10 -3 0 -5 -68 -5 -152z"/>
<path d="M4510 749 c-47 -11 -100 -22 -117 -25 -18 -4 -33 -9 -34 -13 -4 -23
-3 -311 1 -311 3 0 52 14 109 30 57 17 111 30 120 30 14 0 16 19 16 155 0 85
-2 155 -5 154 -3 -1 -43 -10 -90 -20z"/>
<path d="M1787 264 c-1 -1 -45 -4 -97 -8 -52 -3 -106 -8 -120 -11 -14 -2 -41
-6 -60 -9 -57 -7 -170 -33 -245 -56 -89 -28 -265 -113 -293 -142 l-21 -23 915
0 c503 0 914 1 914 3 0 14 -73 61 -158 102 -96 46 -268 97 -387 114 -23 4 -52
9 -65 11 -46 9 -375 25 -383 19z"/>
<path d="M4955 259 c-194 -15 -342 -42 -475 -87 -102 -35 -223 -93 -268 -130
l-33 -27 921 0 c506 0 920 2 920 5 0 7 -86 63 -139 90 -121 61 -296 110 -481
135 -119 16 -332 23 -445 14z"/>
</g>
</svg>
